<svg width="132" height="60" viewBox="0 0 132 60" fill="none" xmlns="http://www.w3.org/2000/svg">
<path fill-rule="evenodd" clip-rule="evenodd" d="M31.836 16.8263C31.1905 15.8186 29.7211 15.8103 29.0642 16.8106L25.2462 22.6249H35.5501L31.836 16.8263ZM17.4407 34.5528L12.3427 42.2747C11.6177 43.3729 12.4053 44.8367 13.7212 44.8367H47.0861C48.3989 44.8367 49.1871 43.3793 48.4686 42.2807L43.4143 34.5528H17.4407ZM18.7115 32.567L24.0071 24.3655H36.6759L42.0478 32.567H18.7115Z" fill="white"/>
<path d="M60.8376 43.9998V23.8398H64.4216V43.9998H60.8376Z" fill="white"/>
<path d="M72.8717 44.3358C71.677 44.3358 70.697 44.1492 69.9317 43.7758C69.1663 43.3838 68.597 42.8705 68.2237 42.2358C67.8503 41.6012 67.6637 40.9012 67.6637 40.1358C67.6637 38.8478 68.1677 37.8025 69.1757 36.9998C70.1837 36.1972 71.6957 35.7958 73.7117 35.7958H77.2397V35.4598C77.2397 34.5078 76.969 33.8078 76.4277 33.3598C75.8863 32.9118 75.2143 32.6878 74.4117 32.6878C73.6837 32.6878 73.049 32.8652 72.5077 33.2198C71.9663 33.5558 71.6303 34.0598 71.4997 34.7318H67.9997C68.093 33.7238 68.429 32.8465 69.0077 32.0998C69.605 31.3532 70.3703 30.7838 71.3037 30.3918C72.237 29.9812 73.2823 29.7758 74.4397 29.7758C76.4183 29.7758 77.977 30.2705 79.1157 31.2598C80.2543 32.2492 80.8237 33.6492 80.8237 35.4598V43.9998H77.7717L77.4357 41.7598C77.025 42.5065 76.4463 43.1225 75.6997 43.6078C74.9717 44.0932 74.029 44.3358 72.8717 44.3358ZM73.6837 41.5358C74.7103 41.5358 75.5037 41.1998 76.0637 40.5278C76.6423 39.8558 77.0063 39.0252 77.1557 38.0358H74.1037C73.1517 38.0358 72.4703 38.2132 72.0597 38.5678C71.649 38.9038 71.4437 39.3238 71.4437 39.8278C71.4437 40.3692 71.649 40.7892 72.0597 41.0878C72.4703 41.3865 73.0117 41.5358 73.6837 41.5358Z" fill="white"/>
<path d="M84.2438 43.9998V30.1118H87.4078L87.6878 32.4638C88.1172 31.6425 88.7332 30.9892 89.5358 30.5038C90.3572 30.0185 91.3185 29.7758 92.4198 29.7758C94.1372 29.7758 95.4718 30.3172 96.4238 31.3998C97.3758 32.4825 97.8518 34.0692 97.8518 36.1598V43.9998H94.2678V36.4958C94.2678 35.3012 94.0252 34.3865 93.5398 33.7518C93.0545 33.1172 92.2985 32.7998 91.2718 32.7998C90.2638 32.7998 89.4332 33.1545 88.7798 33.8638C88.1452 34.5732 87.8278 35.5625 87.8278 36.8318V43.9998H84.2438Z" fill="white"/>
<path d="M108.083 44.3358C106.664 44.3358 105.414 44.0278 104.331 43.4118C103.248 42.7958 102.39 41.9372 101.755 40.8358C101.139 39.7345 100.831 38.4745 100.831 37.0558C100.831 35.6372 101.139 34.3772 101.755 33.2758C102.39 32.1745 103.248 31.3158 104.331 30.6998C105.414 30.0838 106.664 29.7758 108.083 29.7758C109.856 29.7758 111.35 30.2425 112.563 31.1758C113.776 32.0905 114.551 33.3598 114.887 34.9838H111.107C110.92 34.3118 110.547 33.7892 109.987 33.4158C109.446 33.0238 108.802 32.8278 108.055 32.8278C107.066 32.8278 106.226 33.2012 105.535 33.9478C104.844 34.6945 104.499 35.7305 104.499 37.0558C104.499 38.3812 104.844 39.4172 105.535 40.1638C106.226 40.9105 107.066 41.2838 108.055 41.2838C108.802 41.2838 109.446 41.0972 109.987 40.7238C110.547 40.3505 110.92 39.8185 111.107 39.1278H114.887C114.551 40.6958 113.776 41.9558 112.563 42.9078C111.35 43.8598 109.856 44.3358 108.083 44.3358Z" fill="white"/>
<path d="M124.816 44.3358C123.416 44.3358 122.175 44.0372 121.092 43.4398C120.009 42.8425 119.16 42.0025 118.544 40.9198C117.928 39.8372 117.62 38.5865 117.62 37.1678C117.62 35.7305 117.919 34.4518 118.516 33.3318C119.132 32.2118 119.972 31.3438 121.036 30.7278C122.119 30.0932 123.388 29.7758 124.844 29.7758C126.207 29.7758 127.411 30.0745 128.456 30.6718C129.501 31.2692 130.313 32.0905 130.892 33.1358C131.489 34.1625 131.788 35.3105 131.788 36.5798C131.788 36.7852 131.779 36.9998 131.76 37.2238C131.76 37.4478 131.751 37.6812 131.732 37.9238H121.176C121.251 39.0065 121.624 39.8558 122.296 40.4718C122.987 41.0878 123.817 41.3958 124.788 41.3958C125.516 41.3958 126.123 41.2372 126.608 40.9198C127.112 40.5838 127.485 40.1545 127.728 39.6318H131.368C131.107 40.5092 130.668 41.3118 130.052 42.0398C129.455 42.7492 128.708 43.3092 127.812 43.7198C126.935 44.1305 125.936 44.3358 124.816 44.3358ZM124.844 32.6878C123.967 32.6878 123.192 32.9398 122.52 33.4438C121.848 33.9292 121.419 34.6758 121.232 35.6838H128.148C128.092 34.7692 127.756 34.0412 127.14 33.4998C126.524 32.9585 125.759 32.6878 124.844 32.6878Z" fill="white"/>
</svg>
